<svg xmlns="http://www.w3.org/2000/svg" viewBox="0 0 302.17 302.17" id="crown"><g><rect width="302.17" height="302.17" fill="none"></rect><path fill="#ff6f00" d="M215.94 124.69c-7.34-3.85-15.88-6.25-25.37-7.14-6.1-.57-11.77-.44-16.5-.06l1.58 3.69 17.07 39.83 34.57-23.05 3.17-2.11c-4.12-4.52-8.98-8.25-14.51-11.16zM111.61 117.55c-9.5.89-18.04 3.29-25.37 7.14-5.54 2.91-10.39 6.64-14.51 11.16l3.17 2.11 34.57 23.05 17.07-39.83 1.58-3.69c-4.72-.38-10.4-.51-16.5.06z"></path><path fill="#ffca28" d="M274.64,107.96c-.64-.51-1.54-.54-2.22-.09l-41.96,27.98-3.17,2.11-34.57,23.05-17.07-39.83-1.58-3.69-21.25-49.58c-.3-.69-.98-1.14-1.74-1.14s-1.44,.45-1.74,1.14l-21.25,49.58-1.58,3.69-17.07,39.83-34.57-23.05-3.17-2.11-41.96-27.98c-.68-.45-1.57-.42-2.22,.09-.64,.51-.89,1.37-.6,2.13l36.63,99.9c1.08-.29,2.22-.45,3.39-.45H235.22c1.17,0,2.31,.16,3.39,.45l36.63-99.9c.28-.77,.04-1.63-.6-2.13Z"></path><path fill="#ffa000" d="M238.61,209.99c-1.08-.29-2.22-.45-3.39-.45H66.95c-1.17,0-2.31,.16-3.39,.45-5.5,1.49-9.55,6.52-9.55,12.48,0,7.13,5.8,12.94,12.94,12.94H235.22c7.13,0,12.94-5.8,12.94-12.94,0-5.96-4.05-10.99-9.55-12.48Z"></path></g></svg>