<svg xmlns="http://www.w3.org/2000/svg" width="100" height="100" id="rupay"><g transform="translate(93.284 -287.583)"><rect width="63.214" height="40.714" x="-73.879" y="317.729" fill="#f9f9f9" fill-rule="evenodd" stroke="#000" stroke-linecap="round" stroke-linejoin="round" stroke-width=".8" rx="3.599" ry="3.599"></rect><g style="line-height:125%" fill="#004a8c" font-family="Sans" font-size="16.09" font-weight="400" letter-spacing="0" word-spacing="0"><path d="m-61.45 343.357-.565-2.773a6.146 6.146 0 0 0-.126-.53 1.572 1.572 0 0 0-.154-.37.592.592 0 0 0-.213-.216.632.632 0 0 0-.314-.07h-.4l-1.346 3.96h-3.394l3.828-11.267h4.51c1.576 0 2.653.258 3.23.774.576.516.688 1.29.338 2.321a4.39 4.39 0 0 1-.577 1.144 4.816 4.816 0 0 1-1.837 1.555c-.368.18-.751.326-1.15.436l-.024.07a1.827 1.827 0 0 1 .694.581c.091.127.172.274.244.441.071.168.136.364.196.59l.887 3.354zm1.625-7.691c.128-.377.114-.676-.041-.896-.156-.22-.48-.33-.972-.33h-.7l-.876 2.577h.613c.262 0 .502-.04.721-.122.22-.081.412-.186.578-.314.167-.128.308-.272.422-.432.115-.16.2-.32.255-.483zM-51.896 343.357l.422-1.241h-.031c-.146.136-.317.288-.512.456a4.577 4.577 0 0 1-.662.467 4.283 4.283 0 0 1-.816.365c-.298.1-.625.15-.982.15-.492 0-.88-.085-1.166-.256a1.358 1.358 0 0 1-.596-.707c-.113-.3-.147-.658-.103-1.072a6.28 6.28 0 0 1 .314-1.351l1.65-4.856h3.347l-1.565 4.604c-.139.409-.163.709-.074.9.09.19.276.286.559.286.325 0 .606-.107.844-.322.237-.214.423-.518.557-.911l1.548-4.557h3.347l-2.734 8.045zM-34.85 335.807a5.249 5.249 0 0 1-.863 1.58 5.772 5.772 0 0 1-1.366 1.245c-.53.348-1.122.619-1.777.813a7.39 7.39 0 0 1-2.106.29h-1.037l-1.23 3.622h-3.395l3.829-11.266h4.62c.738 0 1.37.065 1.893.196.524.131.93.345 1.22.64.29.297.455.68.497 1.152.041.471-.054 1.047-.285 1.728zm-3.63.118c.09-.267.124-.49.1-.668a.716.716 0 0 0-.195-.428.927.927 0 0 0-.424-.232 2.251 2.251 0 0 0-.585-.07h-.645l-.945 2.78h.762c.273 0 .513-.033.722-.101a1.724 1.724 0 0 0 .946-.727c.108-.17.196-.355.264-.554zM-31.908 343.357l.416-1.225h-.031c-.403.445-.85.793-1.341 1.045a3.448 3.448 0 0 1-1.594.377c-.408 0-.743-.064-1.003-.193a1.29 1.29 0 0 1-.578-.53 1.568 1.568 0 0 1-.183-.79c.002-.3.063-.624.18-.97.1-.293.239-.587.417-.88a3.36 3.36 0 0 1 .714-.817 4.27 4.27 0 0 1 1.11-.656c.444-.186.98-.318 1.608-.397l2.084-.26a.646.646 0 0 0 .028-.368.554.554 0 0 0-.175-.283.893.893 0 0 0-.351-.18 1.819 1.819 0 0 0-.502-.064c-.267 0-.54.023-.82.067-.28.045-.554.103-.822.177a9.377 9.377 0 0 0-.775.247c-.249.092-.48.185-.696.28l.74-2.177c.222-.084.48-.165.777-.244.297-.078.605-.146.926-.204.321-.058.64-.105.956-.141a7.63 7.63 0 0 1 .875-.055c.733 0 1.321.08 1.765.24.443.159.763.397.959.714.196.317.279.713.249 1.187-.03.474-.153 1.028-.369 1.661l-1.508 4.44zm.067-3.527c-.27.042-.505.127-.703.255a1.01 1.01 0 0 0-.463.805c-.001.09.017.17.055.244.038.073.1.132.187.177a.774.774 0 0 0 .35.066c.168 0 .335-.032.502-.098.166-.065.322-.16.47-.283a2.318 2.318 0 0 0 .684-1.017l.103-.306zM-21.796 343.585c-.319.461-.66.905-1.026 1.332a7.927 7.927 0 0 1-1.191 1.135c-.43.33-.896.593-1.4.79a4.533 4.533 0 0 1-1.66.294 7.022 7.022 0 0 1-.881-.067 5.144 5.144 0 0 1-.512-.098 3.026 3.026 0 0 1-.477-.157l.857-2.522a.872.872 0 0 0 .239.165c.097.047.199.09.307.126a2.057 2.057 0 0 0 .638.11 1.9 1.9 0 0 0 .828-.18 1.81 1.81 0 0 0 .664-.559l.473-.628-.639-8.014h3.7l-.344 3.881c-.01.12-.02.25-.033.385a13.705 13.705 0 0 1-.094.774c-.019.118-.04.219-.063.303h.031c.089-.184.204-.4.346-.649.142-.248.298-.514.467-.797l2.291-3.897h3.253z" style="text-align:start;line-height:125%;-inkscape-font-specification:'Segoe WP Black, Ultra-Bold Oblique'" font-family="Segoe WP Black" font-style="oblique" font-weight="800"></path></g></g></svg>