<svg width="154" height="51" viewBox="0 0 154 51" fill="none" xmlns="http://www.w3.org/2000/svg">
<path d="M69.1 31.0014C69.4833 31.6847 69.8917 32.2764 70.325 32.7764C70.775 33.2764 71.2667 33.668 71.8 33.9514C72.35 34.2347 72.95 34.3764 73.6 34.3764C74.4 34.3764 75.05 34.1597 75.55 33.7264C76.05 33.293 76.3 32.7264 76.3 32.0264C76.3 31.393 76.1417 30.8847 75.825 30.5014C75.525 30.1014 75.0917 29.768 74.525 29.5014C73.9583 29.218 73.3083 28.943 72.575 28.6764C72.1417 28.5264 71.6583 28.3264 71.125 28.0764C70.5917 27.8097 70.0833 27.4847 69.6 27.1014C69.1167 26.7014 68.7167 26.218 68.4 25.6514C68.0833 25.068 67.925 24.368 67.925 23.5514C67.925 22.618 68.1667 21.8014 68.65 21.1014C69.1333 20.3847 69.7833 19.8264 70.6 19.4264C71.4333 19.0264 72.375 18.8264 73.425 18.8264C74.4583 18.8264 75.3583 19.018 76.125 19.4014C76.8917 19.768 77.5417 20.2347 78.075 20.8014C78.6083 21.368 79.0167 21.9597 79.3 22.5764L76.925 23.9264C76.6917 23.493 76.4083 23.093 76.075 22.7264C75.7417 22.343 75.35 22.043 74.9 21.8264C74.4667 21.593 73.9583 21.4764 73.375 21.4764C72.5583 21.4764 71.9583 21.668 71.575 22.0514C71.1917 22.418 71 22.8514 71 23.3514C71 23.8014 71.1333 24.2097 71.4 24.5764C71.6833 24.9264 72.1167 25.2597 72.7 25.5764C73.2833 25.893 74.0417 26.218 74.975 26.5514C75.5083 26.7347 76.0333 26.968 76.55 27.2514C77.0833 27.5347 77.5583 27.8847 77.975 28.3014C78.4083 28.718 78.7583 29.218 79.025 29.8014C79.2917 30.368 79.425 31.0347 79.425 31.8014C79.425 32.618 79.2583 33.3514 78.925 34.0014C78.6083 34.6514 78.175 35.2014 77.625 35.6514C77.075 36.0847 76.45 36.418 75.75 36.6514C75.0667 36.9014 74.35 37.0264 73.6 37.0264C72.5833 37.0264 71.6333 36.8264 70.75 36.4264C69.8833 36.0097 69.1167 35.4597 68.45 34.7764C67.8 34.093 67.2833 33.3514 66.9 32.5514L69.1 31.0014ZM84.9775 32.1514C84.9775 32.968 85.1525 33.6014 85.5025 34.0514C85.8525 34.5014 86.3942 34.7264 87.1275 34.7264C87.6275 34.7264 88.0692 34.618 88.4525 34.4014C88.8359 34.1847 89.1359 33.8847 89.3525 33.5014C89.5692 33.118 89.6775 32.668 89.6775 32.1514V25.1514H92.3775V36.6514H89.6775V34.8764C89.3109 35.543 88.8359 36.0514 88.2525 36.4014C87.6859 36.7347 87.0025 36.9014 86.2025 36.9014C84.9192 36.9014 83.9275 36.5014 83.2275 35.7014C82.5442 34.9014 82.2025 33.818 82.2025 32.4514V25.1514H84.9775V32.1514ZM98.4506 42.1514H95.7256V25.1514H98.4506V42.1514ZM107.976 30.9014C107.976 32.168 107.717 33.2597 107.201 34.1764C106.684 35.0764 106.001 35.768 105.151 36.2514C104.301 36.718 103.376 36.9514 102.376 36.9514C101.409 36.9514 100.559 36.7097 99.8256 36.2264C99.1089 35.7264 98.5506 35.0264 98.1506 34.1264C97.7506 33.2097 97.5506 32.1347 97.5506 30.9014C97.5506 29.6514 97.7506 28.5764 98.1506 27.6764C98.5506 26.7764 99.1089 26.0764 99.8256 25.5764C100.559 25.0764 101.409 24.8264 102.376 24.8264C103.376 24.8264 104.301 25.068 105.151 25.5514C106.001 26.0347 106.684 26.7264 107.201 27.6264C107.717 28.5097 107.976 29.6014 107.976 30.9014ZM105.176 30.9014C105.176 30.1347 105.017 29.4847 104.701 28.9514C104.384 28.4014 103.967 27.993 103.451 27.7264C102.934 27.443 102.359 27.3014 101.726 27.3014C101.192 27.3014 100.676 27.443 100.176 27.7264C99.6756 27.993 99.2589 28.393 98.9256 28.9264C98.6089 29.4597 98.4506 30.118 98.4506 30.9014C98.4506 31.6847 98.6089 32.343 98.9256 32.8764C99.2589 33.4097 99.6756 33.818 100.176 34.1014C100.676 34.368 101.192 34.5014 101.726 34.5014C102.359 34.5014 102.934 34.3597 103.451 34.0764C103.967 33.793 104.384 33.3847 104.701 32.8514C105.017 32.318 105.176 31.668 105.176 30.9014ZM115.547 36.9014C114.381 36.9014 113.347 36.6514 112.447 36.1514C111.564 35.6514 110.881 34.9514 110.397 34.0514C109.914 33.1514 109.672 32.1014 109.672 30.9014C109.672 29.6847 109.914 28.6264 110.397 27.7264C110.897 26.8264 111.597 26.1347 112.497 25.6514C113.397 25.1514 114.456 24.9014 115.672 24.9014C116.889 24.9014 117.922 25.1347 118.772 25.6014C119.639 26.068 120.297 26.743 120.747 27.6264C121.197 28.493 121.422 29.543 121.422 30.7764C121.422 30.9097 121.414 31.0514 121.397 31.2014C121.397 31.3514 121.397 31.4597 121.397 31.5264H111.297V29.6514H119.072L118.247 30.8014C118.297 30.7014 118.347 30.568 118.397 30.4014C118.464 30.2347 118.497 30.093 118.497 29.9764C118.497 29.3597 118.372 28.8264 118.122 28.3764C117.889 27.9264 117.556 27.5764 117.122 27.3264C116.706 27.0764 116.214 26.9514 115.647 26.9514C114.964 26.9514 114.381 27.1014 113.897 27.4014C113.431 27.7014 113.064 28.1347 112.797 28.7014C112.547 29.268 112.422 29.968 112.422 30.8014C112.406 31.618 112.522 32.318 112.772 32.9014C113.039 33.4847 113.414 33.9264 113.897 34.2264C114.381 34.5264 114.972 34.6764 115.672 34.6764C116.422 34.6764 117.072 34.5264 117.622 34.2264C118.172 33.9264 118.622 33.468 118.972 32.8514L121.322 33.7764C120.706 34.8097 119.922 35.593 118.972 36.1264C118.022 36.643 116.881 36.9014 115.547 36.9014ZM126.699 25.1514V36.6514H124.024V25.1514H126.699ZM130.124 28.0264C129.89 27.8264 129.657 27.6764 129.424 27.5764C129.207 27.4764 128.932 27.4264 128.599 27.4264C128.149 27.4264 127.782 27.543 127.499 27.7764C127.215 28.0097 127.007 28.3347 126.874 28.7514C126.757 29.1514 126.699 29.6264 126.699 30.1764L125.799 29.6514C125.799 28.7347 125.965 27.9264 126.299 27.2264C126.649 26.5097 127.09 25.943 127.624 25.5264C128.174 25.093 128.74 24.8764 129.324 24.8764C129.74 24.8764 130.132 24.943 130.499 25.0764C130.865 25.2097 131.182 25.4347 131.449 25.7514L130.124 28.0264ZM133.201 20.5764C133.201 20.1097 133.368 19.718 133.701 19.4014C134.051 19.0847 134.451 18.9264 134.901 18.9264C135.385 18.9264 135.793 19.0847 136.126 19.4014C136.46 19.718 136.626 20.1097 136.626 20.5764C136.626 21.0264 136.46 21.418 136.126 21.7514C135.793 22.068 135.385 22.2264 134.901 22.2264C134.451 22.2264 134.051 22.068 133.701 21.7514C133.368 21.418 133.201 21.0264 133.201 20.5764ZM133.576 25.1514H136.251V36.6514H133.576V25.1514ZM139.091 30.9014C139.091 29.718 139.358 28.6764 139.891 27.7764C140.441 26.8764 141.183 26.1764 142.116 25.6764C143.066 25.1597 144.125 24.9014 145.291 24.9014C146.475 24.9014 147.533 25.1597 148.466 25.6764C149.4 26.1764 150.133 26.8764 150.666 27.7764C151.216 28.6764 151.491 29.718 151.491 30.9014C151.491 32.068 151.216 33.1097 150.666 34.0264C150.133 34.9264 149.4 35.6347 148.466 36.1514C147.533 36.6514 146.475 36.9014 145.291 36.9014C144.125 36.9014 143.066 36.6514 142.116 36.1514C141.183 35.6347 140.441 34.9264 139.891 34.0264C139.358 33.1097 139.091 32.068 139.091 30.9014ZM141.866 30.9014C141.866 31.618 142.016 32.2514 142.316 32.8014C142.616 33.3347 143.025 33.7597 143.541 34.0764C144.058 34.3764 144.641 34.5264 145.291 34.5264C145.941 34.5264 146.525 34.3764 147.041 34.0764C147.558 33.7597 147.966 33.3347 148.266 32.8014C148.566 32.2514 148.716 31.618 148.716 30.9014C148.716 30.1847 148.566 29.5514 148.266 29.0014C147.966 28.4514 147.558 28.0264 147.041 27.7264C146.525 27.4264 145.941 27.2764 145.291 27.2764C144.641 27.2764 144.058 27.4264 143.541 27.7264C143.025 28.0264 142.616 28.4514 142.316 29.0014C142.016 29.5514 141.866 30.1847 141.866 30.9014Z" fill="white"/>
<path fill-rule="evenodd" clip-rule="evenodd" d="M20 0.651367C8.95431 0.651367 0 9.60567 0 20.6514V30.6514C0 41.6971 8.9543 50.6514 20 50.6514H30C41.0457 50.6514 50 41.6971 50 30.6514V20.6514C50 9.60567 41.0457 0.651367 30 0.651367H20ZM33 13.1212L19.8375 25.912C17.824 23.9538 17.824 20.7899 19.8375 18.8317L25.7195 13.1116C27.733 11.163 30.9865 11.163 33 13.1212ZM19.5102 39.5324L29.0225 30.2817C31.0361 28.3236 31.0361 25.1596 29.0225 23.2014L19.5102 32.4521C17.4966 34.4103 17.4966 37.5742 19.5102 39.5324ZM31.3336 26.7416C31.3336 26.4522 31.3039 26.1628 31.2642 25.8831C32.0676 27.7159 31.7006 29.9055 30.1731 31.4007L20.6608 40.6514C20.4624 40.4584 20.2839 40.2462 20.1252 40.034L29.5978 30.8219C30.7186 29.7319 31.3336 28.285 31.3336 26.7416ZM28.1595 22.9506L23.944 27.0599L20.7104 26.1532L24.9755 22.015L28.1595 22.9506Z" fill="white"/>
</svg>
