<svg width="153" height="50" viewBox="0 0 153 50" fill="none" xmlns="http://www.w3.org/2000/svg">
<path d="M69.1 29.35L66.9 30.9C67.2833 31.7167 67.8 32.4667 68.45 33.15C69.1167 33.8167 69.8833 34.3583 70.75 34.775C71.6333 35.175 72.5833 35.375 73.6 35.375C74.35 35.375 75.0667 35.25 75.75 35C76.45 34.7667 77.075 34.425 77.625 33.975C78.175 33.525 78.6083 32.9833 78.925 32.35C79.2583 31.7 79.425 30.9667 79.425 30.15C79.425 29.3833 79.2917 28.7167 79.025 28.15C78.775 27.5667 78.425 27.0667 77.975 26.65C77.5417 26.2333 77.0667 25.8833 76.55 25.6C76.0333 25.3167 75.5083 25.0833 74.975 24.9C74.275 24.65 73.6667 24.4083 73.15 24.175C72.65 23.9417 72.2417 23.7 71.925 23.45C71.6083 23.2 71.375 22.9333 71.225 22.65C71.075 22.3667 71 22.05 71 21.7C71 21.3667 71.0833 21.0583 71.25 20.775C71.4167 20.4917 71.675 20.2667 72.025 20.1C72.3917 19.9167 72.8417 19.825 73.375 19.825C73.975 19.825 74.4917 19.9417 74.925 20.175C75.3583 20.4083 75.7333 20.7083 76.05 21.075C76.3833 21.4417 76.6667 21.8417 76.9 22.275L79.3 20.925C79 20.3083 78.5833 19.7167 78.05 19.15C77.5333 18.5833 76.8917 18.1167 76.125 17.75C75.3583 17.3833 74.4583 17.2 73.425 17.2C72.375 17.2 71.4333 17.4 70.6 17.8C69.7833 18.1833 69.1333 18.7333 68.65 19.45C68.1667 20.15 67.925 20.9667 67.925 21.9C67.925 22.7167 68.0833 23.4167 68.4 24C68.7167 24.5833 69.1167 25.075 69.6 25.475C70.0833 25.8583 70.5917 26.175 71.125 26.425C71.6583 26.675 72.1417 26.875 72.575 27.025C73.3083 27.2917 73.95 27.5667 74.5 27.85C75.0667 28.1167 75.5083 28.45 75.825 28.85C76.1417 29.2333 76.3 29.75 76.3 30.4C76.3 30.8667 76.1833 31.275 75.95 31.625C75.7333 31.975 75.425 32.25 75.025 32.45C74.625 32.6333 74.15 32.725 73.6 32.725C72.95 32.725 72.35 32.5833 71.8 32.3C71.2667 32.0167 70.775 31.625 70.325 31.125C69.8917 30.6083 69.4833 30.0167 69.1 29.35ZM84.9531 30.5V23.5H82.1781V30.8C82.1781 31.7167 82.3281 32.5083 82.6281 33.175C82.9448 33.8417 83.4031 34.3583 84.0031 34.725C84.6031 35.075 85.3281 35.25 86.1781 35.25C86.9781 35.25 87.6615 35.0833 88.2281 34.75C88.8115 34.4 89.2865 33.8917 89.6531 33.225V35H92.3531V23.5H89.6531V30.5C89.6531 31.0167 89.5448 31.4667 89.3281 31.85C89.1115 32.2333 88.8115 32.5333 88.4281 32.75C88.0448 32.9667 87.5948 33.075 87.0781 33.075C86.5948 33.075 86.1948 32.975 85.8781 32.775C85.5615 32.575 85.3281 32.2833 85.1781 31.9C85.0281 31.5 84.9531 31.0333 84.9531 30.5ZM98.4262 40.5V23.5H95.7012V40.5H98.4262ZM107.951 29.25C107.951 27.9667 107.693 26.875 107.176 25.975C106.66 25.075 105.976 24.3917 105.126 23.925C104.276 23.4417 103.351 23.2 102.351 23.2C101.618 23.2 100.951 23.3417 100.351 23.625C99.7678 23.9083 99.2595 24.3167 98.8262 24.85C98.4095 25.3667 98.0845 26 97.8512 26.75C97.6345 27.4833 97.5262 28.3167 97.5262 29.25C97.5262 30.1833 97.6345 31.025 97.8512 31.775C98.0845 32.5083 98.4095 33.1417 98.8262 33.675C99.2595 34.1917 99.7678 34.5917 100.351 34.875C100.951 35.1583 101.618 35.3 102.351 35.3C103.351 35.3 104.276 35.0667 105.126 34.6C105.976 34.1167 106.66 33.425 107.176 32.525C107.693 31.625 107.951 30.5333 107.951 29.25ZM105.151 29.25C105.151 30.0167 104.993 30.6667 104.676 31.2C104.36 31.7333 103.943 32.1417 103.426 32.425C102.91 32.7083 102.335 32.85 101.701 32.85C101.318 32.85 100.926 32.775 100.526 32.625C100.143 32.4583 99.7928 32.225 99.4762 31.925C99.1595 31.625 98.9012 31.25 98.7012 30.8C98.5178 30.35 98.4262 29.8333 98.4262 29.25C98.4262 28.6667 98.5178 28.15 98.7012 27.7C98.9012 27.25 99.1595 26.875 99.4762 26.575C99.7928 26.275 100.143 26.05 100.526 25.9C100.926 25.7333 101.318 25.65 101.701 25.65C102.335 25.65 102.91 25.7917 103.426 26.075C103.943 26.3583 104.36 26.7667 104.676 27.3C104.993 27.8333 105.151 28.4833 105.151 29.25ZM115.498 35.25C116.832 35.25 117.973 34.9917 118.923 34.475C119.89 33.9417 120.673 33.1583 121.273 32.125L118.923 31.2C118.557 31.8167 118.098 32.275 117.548 32.575C116.998 32.875 116.357 33.025 115.623 33.025C114.923 33.025 114.332 32.875 113.848 32.575C113.365 32.2583 112.998 31.8167 112.748 31.25C112.498 30.6667 112.373 29.9667 112.373 29.15C112.373 28.5167 112.448 27.9667 112.598 27.5C112.748 27.0167 112.957 26.6167 113.223 26.3C113.507 25.9667 113.84 25.7167 114.223 25.55C114.623 25.3833 115.082 25.3 115.598 25.3C116.165 25.3 116.657 25.425 117.073 25.675C117.507 25.925 117.84 26.275 118.073 26.725C118.323 27.175 118.448 27.7083 118.448 28.325C118.448 28.4417 118.415 28.5833 118.348 28.75C118.298 28.9167 118.24 29.05 118.173 29.15L119.023 28H111.223V29.875H121.348C121.348 29.8083 121.348 29.7083 121.348 29.575C121.365 29.425 121.373 29.275 121.373 29.125C121.373 27.8917 121.14 26.8417 120.673 25.975C120.223 25.0917 119.573 24.4167 118.723 23.95C117.873 23.4833 116.84 23.25 115.623 23.25C114.707 23.25 113.882 23.3917 113.148 23.675C112.415 23.9583 111.782 24.3667 111.248 24.9C110.732 25.4167 110.332 26.05 110.048 26.8C109.765 27.5333 109.623 28.35 109.623 29.25C109.623 30.45 109.865 31.5 110.348 32.4C110.832 33.3 111.515 34 112.398 34.5C113.282 35 114.315 35.25 115.498 35.25ZM126.626 23.5H123.951V35H126.626V23.5ZM130.051 26.4L131.376 24.1C131.109 23.8 130.792 23.5833 130.426 23.45C130.059 23.3167 129.667 23.25 129.251 23.25C128.667 23.25 128.101 23.4583 127.551 23.875C127.017 24.2917 126.576 24.8583 126.226 25.575C125.892 26.275 125.726 27.0833 125.726 28L126.626 28.525C126.626 27.975 126.692 27.4917 126.826 27.075C126.959 26.6583 127.159 26.3417 127.426 26.125C127.709 25.8917 128.076 25.775 128.526 25.775C128.859 25.775 129.134 25.8333 129.351 25.95C129.567 26.05 129.801 26.2 130.051 26.4ZM133.104 18.925C133.104 19.3917 133.27 19.7833 133.604 20.1C133.937 20.4167 134.337 20.575 134.804 20.575C135.287 20.575 135.687 20.4167 136.004 20.1C136.337 19.7833 136.504 19.3917 136.504 18.925C136.504 18.4583 136.337 18.0667 136.004 17.75C135.687 17.4333 135.287 17.275 134.804 17.275C134.337 17.275 133.937 17.4333 133.604 17.75C133.27 18.0667 133.104 18.4583 133.104 18.925ZM133.479 23.5V35H136.129V23.5H133.479ZM138.969 29.25C138.969 30.4167 139.236 31.4583 139.769 32.375C140.319 33.275 141.061 33.9833 141.994 34.5C142.944 35 144.002 35.25 145.169 35.25C146.352 35.25 147.411 35 148.344 34.5C149.277 33.9833 150.011 33.275 150.544 32.375C151.094 31.4583 151.369 30.4167 151.369 29.25C151.369 28.0667 151.094 27.025 150.544 26.125C150.011 25.225 149.277 24.525 148.344 24.025C147.411 23.5083 146.352 23.25 145.169 23.25C144.002 23.25 142.944 23.5083 141.994 24.025C141.061 24.525 140.319 25.225 139.769 26.125C139.236 27.025 138.969 28.0667 138.969 29.25ZM141.744 29.25C141.744 28.5333 141.894 27.9083 142.194 27.375C142.494 26.825 142.902 26.4 143.419 26.1C143.936 25.7833 144.519 25.625 145.169 25.625C145.819 25.625 146.402 25.7833 146.919 26.1C147.436 26.4 147.844 26.825 148.144 27.375C148.444 27.9083 148.594 28.5333 148.594 29.25C148.594 29.9667 148.444 30.6 148.144 31.15C147.844 31.6833 147.436 32.1083 146.919 32.425C146.402 32.725 145.819 32.875 145.169 32.875C144.519 32.875 143.936 32.725 143.419 32.425C142.902 32.1083 142.494 31.6833 142.194 31.15C141.894 30.6 141.744 29.9667 141.744 29.25Z" fill="#202124"/>
<path fill-rule="evenodd" clip-rule="evenodd" d="M20 0C8.95431 0 0 8.9543 0 20V30C0 41.0457 8.9543 50 20 50H30C41.0457 50 50 41.0457 50 30V20C50 8.95431 41.0457 0 30 0H20ZM33 12.4698L19.8375 25.2607C17.824 23.3025 17.824 20.1385 19.8375 18.1804L25.7195 12.4602C27.733 10.5117 30.9865 10.5117 33 12.4698ZM19.5102 38.881L29.0225 29.6304C31.0361 27.6722 31.0361 24.5083 29.0225 22.5501L19.5102 31.8008C17.4966 33.7589 17.4966 36.9229 19.5102 38.881ZM31.3336 26.0902C31.3336 25.8008 31.3039 25.5115 31.2642 25.2317C32.0676 27.0645 31.7006 29.2542 30.1731 30.7493L20.6608 40C20.4624 39.8071 20.2839 39.5949 20.1252 39.3826L29.5978 30.1706C30.7186 29.0805 31.3336 27.6336 31.3336 26.0902ZM28.1595 22.2993L23.944 26.4085L20.7104 25.5018L24.9755 21.3636L28.1595 22.2993Z" fill="#202124"/>
</svg>
