<svg xmlns="http://www.w3.org/2000/svg" width="32" height="32" id="dollar"><g transform="translate(-111.114 -16.362)"><circle cx="127.114" cy="32.362" r="16" fill="#ffcc0f" fill-rule="evenodd"></circle><path fill="#fff" d="m136.26 27.867-18.308.036a.916.916 0 0 0-.916.919l.013 7.117a.916.916 0 0 0 .92.916l18.308-.035c.509 0 .917-.411.916-.92l-.013-7.117a.916.916 0 0 0-.92-.916zm-1.26.749a1.492 1.492 0 0 0 .45.975 1.492 1.492 0 0 0 .986.417l.009 4.622a1.492 1.492 0 0 0-1.426 1.446l-15.754.03a1.492 1.492 0 0 0-.537-1.11 1.492 1.492 0 0 0-.935-.343l-.008-4.533a1.492 1.492 0 0 0 .925-.359 1.492 1.492 0 0 0 .518-1.115l15.772-.03zm-7.89.76a2.984 2.984 0 0 0-2.98 2.991 2.984 2.984 0 0 0 2.99 2.978 2.984 2.984 0 0 0 2.979-2.99 2.984 2.984 0 0 0-2.99-2.978zm-.213.727.427.004.002.577c.148.017.284.052.408.103a.934.934 0 0 1 .432.348 1 1 0 0 1 .163.52l-.42.032c-.022-.208-.098-.366-.229-.472-.13-.107-.322-.16-.576-.16-.264.001-.456.05-.577.147a.437.437 0 0 0-.181.351c0 .119.043.216.129.292.084.077.304.155.66.235.355.08.599.149.731.209.192.088.335.2.427.336a.82.82 0 0 1 .138.47c0 .175-.05.34-.15.497a.995.995 0 0 1-.433.363 1.455 1.455 0 0 1-.512.127h-.004v.538h-.426l-.002-.552a1.602 1.602 0 0 1-.444-.112 1.053 1.053 0 0 1-.476-.393 1.115 1.115 0 0 1-.183-.592l.412-.037c.02.165.066.3.138.407a.744.744 0 0 0 .332.256c.15.065.32.097.508.097.167 0 .314-.026.441-.075a.612.612 0 0 0 .285-.205.473.473 0 0 0 .093-.283.43.43 0 0 0-.09-.27.667.667 0 0 0-.299-.195 5.82 5.82 0 0 0-.588-.16c-.304-.072-.517-.141-.638-.205a.892.892 0 0 1-.353-.307.754.754 0 0 1-.117-.41.84.84 0 0 1 .14-.469.879.879 0 0 1 .415-.33c.129-.054.268-.09.417-.105v-.577zm7.295 1.497a.746.746 0 0 0-.744.747.746.746 0 0 0 .747.745.746.746 0 0 0 .745-.748.746.746 0 0 0-.748-.744zm-14.157.029a.746.746 0 0 0-.745.747.746.746 0 0 0 .747.745.746.746 0 0 0 .745-.747.746.746 0 0 0-.747-.745zm14.158.344a.373.373 0 0 1 .374.372.373.373 0 0 1-.372.374.373.373 0 0 1-.374-.372.373.373 0 0 1 .372-.374zm-14.158.029a.373.373 0 0 1 .374.373.373.373 0 0 1-.372.373.373.373 0 0 1-.374-.372.373.373 0 0 1 .372-.374z"></path></g></svg>