<svg xmlns="http://www.w3.org/2000/svg" enable-background="new 0 0 24 24" viewBox="0 0 24 24" id="paypal"><path fill="#003087" d="M19.148,1.809C18.036,0.543,16.028,0,13.458,0H6c-0.526,0-0.973,0.382-1.056,0.901L1.839,20.598c-0.054,0.349,0.184,0.677,0.533,0.732l0.1,0.008h4.605l1.157-7.335l-0.036,0.23c0.081-0.518,0.527-0.9,1.051-0.901h2.188c4.298,0,7.664-1.746,8.647-6.796c0.03-0.15,0.054-0.295,0.076-0.437c0.292-1.867-0.002-3.137-1.012-4.288L19.148,1.809L19.148,1.809z"></path><path fill="#003087" d="M19.148,1.809C18.036,0.543,16.028,0,13.458,0H6c-0.526,0-0.973,0.382-1.056,0.901L1.839,20.598c-0.054,0.349,0.184,0.677,0.533,0.732l0.1,0.008h4.605l1.157-7.335l-0.036,0.23c0.081-0.518,0.527-0.9,1.051-0.901h2.188c4.298,0,7.664-1.746,8.647-6.796c0.03-0.15,0.054-0.295,0.076-0.437c0.292-1.867-0.002-3.137-1.012-4.288L19.148,1.809L19.148,1.809z"></path><path fill="#003087" d="M9.476,6.123c0.072-0.454,0.463-0.788,0.922-0.788h5.847c0.693,0,1.339,0.045,1.929,0.139c0.323,0.052,0.642,0.123,0.956,0.214c0.356,0.1,0.701,0.238,1.029,0.41c0.293-1.867-0.001-3.137-1.011-4.289c-1.112-1.266-3.12-1.809-5.69-1.809H5.999c-0.525,0-0.972,0.382-1.054,0.901L1.839,20.597c-0.055,0.349,0.183,0.677,0.532,0.732l0.1,0.008h4.606l1.156-7.336L9.476,6.123L9.476,6.123z"></path><path fill="#009CDE" d="M20.16,6.097c-0.023,0.146-0.048,0.292-0.076,0.437c-0.983,5.05-4.349,6.797-8.647,6.797H9.247c-0.524,0-0.97,0.383-1.05,0.901l-1.121,7.105l-0.319,2.015c-0.048,0.306,0.16,0.593,0.466,0.641L7.311,24h3.882c0.459,0,0.85-0.334,0.922-0.788l0.038-0.198l0.732-4.636l0.046-0.256c0.072-0.454,0.463-0.788,0.923-0.788h0.581c3.76,0,6.704-1.527,7.564-5.946c0.359-1.845,0.173-3.388-0.776-4.47C20.921,6.581,20.561,6.304,20.16,6.097L20.16,6.097z"></path><path fill="#012169" d="M19.13,5.688c-0.15-0.045-0.305-0.085-0.464-0.12c-0.16-0.035-0.324-0.066-0.493-0.093c-0.591-0.096-1.236-0.142-1.929-0.142h-5.847c-0.46,0-0.852,0.335-0.922,0.789l-1.243,7.88l-0.036,0.229c0.08-0.518,0.526-0.9,1.05-0.901h2.189c4.299,0,7.664-1.746,8.647-6.797c0.029-0.149,0.054-0.294,0.076-0.437c-0.26-0.136-0.53-0.25-0.808-0.341L19.13,5.688L19.13,5.688L19.13,5.688z"></path><path fill="#002A76" d="M2.064,21.192c0.085,0.071,0.19,0.12,0.308,0.138l0.1,0.008h4.604l0-0.001H2.471l-0.1-0.008C2.254,21.311,2.15,21.262,2.064,21.192L2.064,21.192z M9.476,6.123l-1.243,7.879L7.22,20.423l0.976-6.191c0.08-0.518,0.526-0.9,1.05-0.901h2.189c0.067,0,0.134,0,0.201-0.001c-0.067,0.001-0.134,0.001-0.201,0.001H9.247c-0.524,0-0.97,0.383-1.05,0.901l0.036-0.229L9.476,6.123L9.476,6.123z M12,0H6c-0.526,0-0.973,0.382-1.056,0.901L3.578,9.569l1.367-8.668c0.082-0.518,0.529-0.9,1.054-0.901L12,0L12,0L12,0z"></path><path fill="#002A76" d="M12,0.001H5.999c-0.525,0-0.972,0.382-1.054,0.901L3.578,9.569L1.839,20.597c-0.037,0.232,0.056,0.455,0.226,0.595l0,0c0.085,0.07,0.189,0.119,0.306,0.137l0.1,0.008h4.606v-0.001l0.144-0.914l1.012-6.421l1.243-7.879c0.07-0.454,0.462-0.79,0.922-0.789H12V0.001L12,0.001z"></path><path fill="#0088C1" d="M12,13.321c-0.12,0.005-0.242,0.008-0.364,0.009c-0.067,0.001-0.134,0.001-0.201,0.001H9.247c-0.524,0-0.97,0.383-1.05,0.901L7.22,20.423l-0.144,0.914l0,0.001l0,0.001l-0.319,2.014c-0.048,0.306,0.16,0.593,0.466,0.641L7.311,24h3.882c0.341,0,0.644-0.184,0.807-0.465V13.321L12,13.321z"></path><path fill="#011D5B" d="M12,5.334h-1.603c-0.46,0-0.852,0.335-0.922,0.789l0,0l-1.243,7.88l-0.036,0.229c0.08-0.518,0.526-0.9,1.05-0.901h2.189c0.067,0,0.134,0,0.201-0.001c0.122-0.002,0.243-0.005,0.364-0.009V5.334L12,5.334z"></path></svg>