<svg xmlns="http://www.w3.org/2000/svg" width="64" height="64" id="visa"><path fill="#3C58BF" d="m23.6 41 3.2-18h5l-3.1 18z"></path><path fill="#293688" d="m23.6 41 4.1-18h4.1l-3.1 18z"></path><path fill="#3C58BF" d="M46.8 23.2c-1-.4-2.6-.8-4.6-.8-5 0-8.6 2.5-8.6 6.1 0 2.7 2.5 4.1 4.5 5 2 .9 2.6 1.5 2.6 2.3 0 1.2-1.6 1.8-3 1.8-2 0-3.1-.3-4.8-1l-.7-.3-.7 4.1c1.2.5 3.4 1 5.7 1 5.3 0 8.8-2.5 8.8-6.3 0-2.1-1.3-3.7-4.3-5-1.8-.9-2.9-1.4-2.9-2.3 0-.8.9-1.6 2.9-1.6 1.7 0 2.9.3 3.8.7l.5.2.8-3.9z"></path><path fill="#293688" d="M46.8 23.2c-1-.4-2.6-.8-4.6-.8-5 0-7.7 2.5-7.7 6.1 0 2.7 1.6 4.1 3.6 5 2 .9 2.6 1.5 2.6 2.3 0 1.2-1.6 1.8-3 1.8-2 0-3.1-.3-4.8-1l-.7-.3-.7 4.1c1.2.5 3.4 1 5.7 1 5.3 0 8.8-2.5 8.8-6.3 0-2.1-1.3-3.7-4.3-5-1.8-.9-2.9-1.4-2.9-2.3 0-.8.9-1.6 2.9-1.6 1.7 0 2.9.3 3.8.7l.5.2.8-3.9z"></path><path fill="#3C58BF" d="M55.4 23c-1.2 0-2.1.1-2.6 1.3L45.3 41h5.4l1-3h6.4l.6 3h4.8l-4.2-18h-3.9zm-2.3 12c.3-.9 2-5.3 2-5.3s.4-1.1.7-1.8l.3 1.7s1 4.5 1.2 5.5h-4.2V35z"></path><path fill="#293688" d="M56.6 23c-1.2 0-2.1.1-2.6 1.3L45.3 41h5.4l1-3h6.4l.6 3h4.8l-4.2-18h-2.7zm-3.5 12c.4-1 2-5.3 2-5.3s.4-1.1.7-1.8l.3 1.7s1 4.5 1.2 5.5h-4.2V35z"></path><path fill="#3C58BF" d="m14.4 35.6-.5-2.6c-.9-3-3.8-6.3-7-7.9l4.5 16h5.4l8.1-18h-5.4l-5.1 12.5z"></path><path fill="#293688" d="m14.4 35.6-.5-2.6c-.9-3-3.8-6.3-7-7.9l4.5 16h5.4l8.1-18h-4.4l-6.1 12.5z"></path><path fill="#FFBC00" d="m.5 23 .9.2c6.4 1.5 10.8 5.3 12.5 9.8l-1.8-8.5c-.3-1.2-1.2-1.5-2.3-1.5H.5z"></path><path fill="#F7981D" d="M.5 23c6.4 1.5 11.7 5.4 13.4 9.9l-1.7-7.1c-.3-1.2-1.3-1.9-2.4-1.9L.5 23z"></path><path fill="#ED7C00" d="M.5 23c6.4 1.5 11.7 5.4 13.4 9.9L12.7 29c-.3-1.2-.7-2.4-2.1-2.9L.5 23z"></path><path fill="#051244" d="M19.4 35 16 31.6l-1.6 3.8-.4-2.5c-.9-3-3.8-6.3-7-7.9l4.5 16h5.4l2.5-6zM28.7 41l-4.3-4.4-.8 4.4h5.1zM40.2 34.8c.4.4.6.7.5 1.1 0 1.2-1.6 1.8-3 1.8-2 0-3.1-.3-4.8-1l-.7-.3-.7 4.1c1.2.5 3.4 1 5.7 1 3.2 0 5.8-.9 7.3-2.5l-4.3-4.2zM46 41h4.7l1-3h6.4l.6 3h4.8l-1.7-7.3-6-5.8.3 1.6s1 4.5 1.2 5.5h-4.2c.4-1 2-5.3 2-5.3s.4-1.1.7-1.8"></path></svg>